<mxfile host="65bd71144e">
    <diagram id="0n0lVPkZu06ZkCW_Be9V" name="Page-1">
        <mxGraphModel dx="3258" dy="1634" grid="1" gridSize="10" guides="1" tooltips="1" connect="1" arrows="1" fold="1" page="1" pageScale="1" pageWidth="850" pageHeight="1100" math="0" shadow="0">
            <root>
                <mxCell id="0"/>
                <mxCell id="1" parent="0"/>
                <mxCell id="51" value="" style="rounded=0;whiteSpace=wrap;html=1;" parent="1" vertex="1">
                    <mxGeometry x="-830" y="20" width="1970" height="1220" as="geometry"/>
                </mxCell>
                <mxCell id="10" value="&lt;font style=&quot;font-size: 20px&quot;&gt;Start&lt;/font&gt;" style="strokeWidth=2;html=1;shape=mxgraph.flowchart.start_1;whiteSpace=wrap;" parent="1" vertex="1">
                    <mxGeometry x="-690.161858974359" y="74.26966292134831" width="130.06410256410257" height="84.26966292134831" as="geometry"/>
                </mxCell>
                <mxCell id="11" value="&lt;font style=&quot;font-size: 20px&quot;&gt;Pengenalan Objek&lt;/font&gt;" style="rounded=1;whiteSpace=wrap;html=1;absoluteArcSize=1;arcSize=14;strokeWidth=2;" parent="1" vertex="1">
                    <mxGeometry x="171.51282051282055" y="81.29213483146069" width="253.625" height="70.22471910112361" as="geometry"/>
                </mxCell>
                <mxCell id="42" value="" style="edgeStyle=none;html=1;strokeWidth=3;" parent="1" source="12" target="11" edge="1">
                    <mxGeometry x="-803.9679487179487" y="4.044943820224722" as="geometry"/>
                </mxCell>
                <mxCell id="12" value="&lt;font style=&quot;font-size: 20px&quot;&gt;Pembentukan Grid 2D Objek&lt;/font&gt;" style="rounded=1;whiteSpace=wrap;html=1;absoluteArcSize=1;arcSize=14;strokeWidth=2;" parent="1" vertex="1">
                    <mxGeometry x="-312.32564102564106" y="74.26966292134831" width="305.65064102564105" height="84.26966292134831" as="geometry"/>
                </mxCell>
                <mxCell id="41" style="edgeStyle=none;html=1;strokeWidth=4;" parent="1" source="10" target="12" edge="1">
                    <mxGeometry x="-803.9679487179487" y="4.044943820224722" as="geometry"/>
                </mxCell>
                <mxCell id="14" value="&lt;font style=&quot;font-size: 20px&quot;&gt;Pemilihan Daftar Tujuan&lt;/font&gt;" style="rounded=1;whiteSpace=wrap;html=1;absoluteArcSize=1;arcSize=14;strokeWidth=2;" parent="1" vertex="1">
                    <mxGeometry x="46.83391025641026" y="622.0175280898877" width="253.625" height="70.22471910112361" as="geometry"/>
                </mxCell>
                <mxCell id="15" value="&lt;font style=&quot;font-size: 20px&quot;&gt;Pencarian Posisi Sekarang&lt;/font&gt;" style="rounded=1;whiteSpace=wrap;html=1;absoluteArcSize=1;arcSize=14;strokeWidth=2;" parent="1" vertex="1">
                    <mxGeometry x="-729.1810897435897" y="404.32584269662925" width="253.625" height="70.22471910112361" as="geometry"/>
                </mxCell>
                <mxCell id="19" value="&lt;span&gt;&lt;font style=&quot;font-size: 20px&quot;&gt;Pencarian Objek Hambatan&lt;/font&gt;&lt;/span&gt;" style="rounded=1;whiteSpace=wrap;html=1;absoluteArcSize=1;arcSize=14;strokeWidth=2;" parent="1" vertex="1">
                    <mxGeometry x="171.51282051282055" y="228.76404494382024" width="253.625" height="70.22471910112361" as="geometry"/>
                </mxCell>
                <mxCell id="20" value="&lt;font style=&quot;font-size: 20px&quot;&gt;Pencarian Jalan dengan A*&lt;/font&gt;" style="rounded=1;whiteSpace=wrap;html=1;absoluteArcSize=1;arcSize=14;strokeWidth=2;" parent="1" vertex="1">
                    <mxGeometry x="552.6006410256412" y="622.0175280898877" width="253.625" height="70.22471910112361" as="geometry"/>
                </mxCell>
                <mxCell id="94" style="edgeStyle=none;html=1;entryX=0;entryY=0.5;entryDx=0;entryDy=0;exitX=1;exitY=0.5;exitDx=0;exitDy=0;strokeWidth=4;" parent="1" source="14" target="20" edge="1">
                    <mxGeometry x="-869" y="-10" as="geometry"/>
                </mxCell>
                <mxCell id="21" value="&lt;font style=&quot;font-size: 20px&quot;&gt;Pemisahan Objek Beresiko&lt;/font&gt;" style="rounded=1;whiteSpace=wrap;html=1;absoluteArcSize=1;arcSize=14;strokeWidth=2;" parent="1" vertex="1">
                    <mxGeometry x="-286.963141025641" y="228.76404494382024" width="253.625" height="70.22471910112361" as="geometry"/>
                </mxCell>
                <mxCell id="56" style="edgeStyle=none;html=1;entryX=1;entryY=0.5;entryDx=0;entryDy=0;strokeWidth=4;" parent="1" source="19" target="21" edge="1">
                    <mxGeometry x="-803.9679487179487" y="4.044943820224722" as="geometry"/>
                </mxCell>
                <mxCell id="58" value="" style="edgeStyle=none;html=1;strokeWidth=4;" parent="1" source="22" target="15" edge="1">
                    <mxGeometry x="-803.9679487179487" y="60.22471910112361" as="geometry"/>
                </mxCell>
                <mxCell id="22" value="&lt;span&gt;&lt;font style=&quot;font-size: 20px&quot;&gt;Pencarian Objek Jalan&lt;/font&gt;&lt;/span&gt;" style="rounded=1;whiteSpace=wrap;html=1;absoluteArcSize=1;arcSize=14;strokeWidth=2;" parent="1" vertex="1">
                    <mxGeometry x="-729.1810897435897" y="228.76404494382024" width="253.625" height="70.22471910112361" as="geometry"/>
                </mxCell>
                <mxCell id="57" style="edgeStyle=none;html=1;entryX=1;entryY=0.5;entryDx=0;entryDy=0;strokeWidth=4;" parent="1" source="21" target="22" edge="1">
                    <mxGeometry x="-803.9679487179487" y="4.044943820224722" as="geometry"/>
                </mxCell>
                <mxCell id="23" value="&lt;font style=&quot;font-size: 20px&quot;&gt;Lakukan di Game&lt;/font&gt;" style="rounded=1;whiteSpace=wrap;html=1;absoluteArcSize=1;arcSize=14;strokeWidth=2;" parent="1" vertex="1">
                    <mxGeometry x="-636.8355769230769" y="1043.370786516854" width="253.625" height="70.22471910112361" as="geometry"/>
                </mxCell>
                <mxCell id="47" value="&lt;font style=&quot;font-size: 20px&quot;&gt;Ya&lt;/font&gt;" style="edgeStyle=none;html=1;entryX=0.5;entryY=0;entryDx=0;entryDy=0;entryPerimeter=0;exitX=0.5;exitY=1;exitDx=0;exitDy=0;exitPerimeter=0;strokeWidth=4;" parent="1" source="95" edge="1" target="26">
                    <mxGeometry x="-725.9294871794872" y="60.22471910112361" as="geometry">
                        <mxPoint x="229.39134615384614" y="929.6067415730338" as="targetPoint"/>
                        <Array as="points"/>
                        <mxPoint x="366.60897435897436" y="902.9213483146067" as="sourcePoint"/>
                    </mxGeometry>
                </mxCell>
                <mxCell id="36" value="&lt;font style=&quot;font-size: 20px&quot;&gt;Tidak&lt;/font&gt;" style="edgeStyle=none;html=1;entryX=0;entryY=0.5;entryDx=0;entryDy=0;exitX=1;exitY=0.5;exitDx=0;exitDy=0;exitPerimeter=0;strokeWidth=4;" parent="1" source="24" target="14" edge="1">
                    <mxGeometry x="-676.5051282051281" y="60.22471910112361" as="geometry">
                        <mxPoint x="-35.93942307692305" y="657.1348314606743" as="targetPoint"/>
                        <mxPoint x="-102.2721153846154" y="643.0898876404495" as="sourcePoint"/>
                    </mxGeometry>
                </mxCell>
                <mxCell id="24" value="&lt;font style=&quot;font-size: 20px&quot;&gt;Apakah sudah ada &lt;br&gt;jalan sebelumnya&lt;/font&gt;" style="strokeWidth=2;html=1;shape=mxgraph.flowchart.decision;whiteSpace=wrap;" parent="1" vertex="1">
                    <mxGeometry x="-380.28" y="583.14" width="312.15" height="147.98" as="geometry"/>
                </mxCell>
                <mxCell id="37" value="&lt;font style=&quot;font-size: 20px&quot;&gt;Tidak&lt;/font&gt;" style="edgeStyle=none;html=1;exitX=0.5;exitY=1;exitDx=0;exitDy=0;exitPerimeter=0;entryX=1;entryY=0.5;entryDx=0;entryDy=0;strokeWidth=4;" parent="1" source="26" target="23" edge="1">
                    <mxGeometry x="-803.9679487179487" y="60.22471910112361" as="geometry">
                        <mxPoint x="-177.3841346153846" y="1197.865168539326" as="sourcePoint"/>
                        <mxPoint x="-247.61874999999998" y="1338.314606741573" as="targetPoint"/>
                        <Array as="points">
                            <mxPoint x="-65.20384615384614" y="1078.4831460674159"/>
                        </Array>
                    </mxGeometry>
                </mxCell>
                <mxCell id="26" value="&lt;font style=&quot;font-size: 20px&quot;&gt;Apakah jalan melewati &lt;br&gt;objek beresiko&lt;/font&gt;" style="strokeWidth=2;html=1;shape=mxgraph.flowchart.decision;whiteSpace=wrap;" parent="1" vertex="1">
                    <mxGeometry x="234.17999999999984" y="938.76" width="340" height="138.99" as="geometry"/>
                </mxCell>
                <mxCell id="40" value="&lt;font style=&quot;font-size: 20px&quot;&gt;Ya&lt;/font&gt;" style="edgeStyle=none;html=1;exitX=0.5;exitY=1;exitDx=0;exitDy=0;exitPerimeter=0;entryX=0;entryY=0.5;entryDx=0;entryDy=0;entryPerimeter=0;strokeWidth=4;" parent="1" source="24" target="26" edge="1">
                    <mxGeometry as="geometry">
                        <Array as="points">
                            <mxPoint x="-224" y="1008"/>
                        </Array>
                        <mxPoint x="-49.59615384615381" y="902.9213483146067" as="targetPoint"/>
                        <mxPoint x="-229" y="60" as="offset"/>
                    </mxGeometry>
                </mxCell>
                <mxCell id="27" value="&lt;font style=&quot;font-size: 20px&quot;&gt;Finish&lt;/font&gt;" style="strokeWidth=2;html=1;shape=mxgraph.flowchart.start_1;whiteSpace=wrap;" parent="1" vertex="1">
                    <mxGeometry x="974.658205128205" y="74.26966292134831" width="130.06410256410257" height="84.26966292134831" as="geometry"/>
                </mxCell>
                <mxCell id="35" value="&lt;font style=&quot;font-size: 20px&quot;&gt;Ya&lt;/font&gt;" style="edgeStyle=none;html=1;exitX=1;exitY=0.5;exitDx=0;exitDy=0;exitPerimeter=0;entryX=0;entryY=0.5;entryDx=0;entryDy=0;entryPerimeter=0;strokeWidth=4;" parent="1" source="28" target="27" edge="1">
                    <mxGeometry x="-527.3606217948718" y="81.29213483146069" as="geometry">
                        <mxPoint x="1265.247871794872" y="2300.3932584269664" as="targetPoint"/>
                    </mxGeometry>
                </mxCell>
                <mxCell id="67" value="&lt;font style=&quot;font-size: 20px&quot;&gt;Tidak&lt;/font&gt;" style="edgeStyle=none;html=1;entryX=1;entryY=0.5;entryDx=0;entryDy=0;exitX=0.5;exitY=1;exitDx=0;exitDy=0;exitPerimeter=0;strokeWidth=4;" parent="1" source="28" target="19" edge="1">
                    <mxGeometry x="-527.3606217948718" y="81.29213483146069" as="geometry">
                        <mxPoint x="557.0488333333333" y="748.4269662921353" as="targetPoint"/>
                        <Array as="points">
                            <mxPoint x="689" y="264"/>
                        </Array>
                    </mxGeometry>
                </mxCell>
                <mxCell id="28" value="&lt;font style=&quot;font-size: 20px&quot;&gt;Apakah game sudah&lt;br&gt;berakhir&lt;/font&gt;" style="strokeWidth=2;html=1;shape=mxgraph.flowchart.decision;whiteSpace=wrap;" parent="1" vertex="1">
                    <mxGeometry x="540" y="40.45" width="298.31" height="151.91" as="geometry"/>
                </mxCell>
                <mxCell id="92" style="edgeStyle=none;html=1;entryX=0;entryY=0.5;entryDx=0;entryDy=0;entryPerimeter=0;strokeWidth=4;" parent="1" source="11" target="28" edge="1">
                    <mxGeometry x="-869" y="-10" as="geometry"/>
                </mxCell>
                <mxCell id="54" value="&lt;font style=&quot;font-size: 25px&quot;&gt;Kelompok Guardians of The Galaxy&lt;/font&gt;" style="text;html=1;align=center;verticalAlign=middle;resizable=0;points=[];autosize=1;strokeColor=none;fontSize=17;fontStyle=1" parent="1" vertex="1">
                    <mxGeometry x="-799.9951923076923" y="1183.8202247191011" width="440" height="30" as="geometry"/>
                </mxCell>
                <mxCell id="55" value="&lt;font style=&quot;font-size: 20px&quot;&gt;Menunggu di Game&lt;/font&gt;" style="rounded=1;whiteSpace=wrap;html=1;absoluteArcSize=1;arcSize=14;strokeWidth=2;" parent="1" vertex="1">
                    <mxGeometry x="851.0977564102566" y="973.1460674157304" width="253.625" height="70.22471910112361" as="geometry"/>
                </mxCell>
                <mxCell id="38" style="edgeStyle=none;html=1;exitX=1;exitY=0.5;exitDx=0;exitDy=0;exitPerimeter=0;entryX=0;entryY=0.5;entryDx=0;entryDy=0;strokeWidth=4;" parent="1" source="26" target="55" edge="1">
                    <mxGeometry x="-803.9679487179487" y="60.22471910112361" as="geometry">
                        <Array as="points"/>
                        <mxPoint x="158.5064102564104" y="832.6966292134832" as="targetPoint"/>
                    </mxGeometry>
                </mxCell>
                <mxCell id="39" value="&lt;font style=&quot;font-size: 20px&quot;&gt;Ya&lt;/font&gt;" style="edgeLabel;html=1;align=center;verticalAlign=middle;resizable=0;points=[];" parent="38" vertex="1" connectable="0">
                    <mxGeometry x="0.1532" y="2" relative="1" as="geometry">
                        <mxPoint as="offset"/>
                    </mxGeometry>
                </mxCell>
                <mxCell id="63" style="edgeStyle=none;html=1;entryX=0.5;entryY=1;entryDx=0;entryDy=0;strokeWidth=4;" parent="1" source="60" target="12" edge="1">
                    <mxGeometry x="-803.9679487179487" y="60.22471910112361" as="geometry">
                        <Array as="points">
                            <mxPoint x="-677.1554487179487" y="607.9775280898878"/>
                            <mxPoint x="-768.2003205128206" y="607.9775280898878"/>
                            <mxPoint x="-767.55" y="200.6741573033708"/>
                            <mxPoint x="-160.150641025641" y="200.6741573033708"/>
                        </Array>
                    </mxGeometry>
                </mxCell>
                <mxCell id="60" value="&lt;font style=&quot;font-size: 20px&quot;&gt;600ms&lt;/font&gt;" style="strokeWidth=2;html=1;shape=mxgraph.flowchart.delay;whiteSpace=wrap;" parent="1" vertex="1">
                    <mxGeometry x="-742.1875" y="664.1573033707865" width="130.06410256410257" height="84.26966292134831" as="geometry"/>
                </mxCell>
                <mxCell id="66" style="edgeStyle=none;html=1;entryX=0.5;entryY=1;entryDx=0;entryDy=0;entryPerimeter=0;strokeWidth=4;" parent="1" source="23" target="60" edge="1">
                    <mxGeometry x="-803.9679487179487" y="60.22471910112361" as="geometry">
                        <Array as="points">
                            <mxPoint x="-677" y="1078"/>
                        </Array>
                    </mxGeometry>
                </mxCell>
                <mxCell id="59" style="edgeStyle=none;html=1;entryX=0.5;entryY=1;entryDx=0;entryDy=0;entryPerimeter=0;strokeWidth=4;" parent="1" source="55" target="60" edge="1">
                    <mxGeometry x="-803.9679487179487" y="60.22471910112361" as="geometry">
                        <mxPoint x="-742.1875" y="762.4719101123596" as="targetPoint"/>
                        <Array as="points">
                            <mxPoint x="981.8121794871795" y="1141.685393258427"/>
                            <mxPoint x="-676.5051282051281" y="1141.685393258427"/>
                        </Array>
                    </mxGeometry>
                </mxCell>
                <mxCell id="73" value="&lt;font style=&quot;font-size: 20px&quot;&gt;Tidak&lt;/font&gt;" style="edgeStyle=none;html=1;entryX=0.5;entryY=0;entryDx=0;entryDy=0;entryPerimeter=0;exitX=0.5;exitY=1;exitDx=0;exitDy=0;exitPerimeter=0;strokeWidth=4;" parent="1" source="72" target="24" edge="1">
                    <mxGeometry x="-803.9679487179487" y="60.22471910112361" as="geometry"/>
                </mxCell>
                <mxCell id="72" value="&lt;font style=&quot;font-size: 20px&quot;&gt;Apakah &lt;br&gt;dalam posisi &lt;br&gt;berbahaya&lt;/font&gt;" style="strokeWidth=2;html=1;shape=mxgraph.flowchart.decision;whiteSpace=wrap;" parent="1" vertex="1">
                    <mxGeometry x="-385.811858974359" y="360.78651685393254" width="323.2092948717949" height="157.30337078651684" as="geometry"/>
                </mxCell>
                <mxCell id="49" value="" style="edgeStyle=none;html=1;entryX=0;entryY=0.5;entryDx=0;entryDy=0;entryPerimeter=0;strokeWidth=4;" parent="1" source="15" target="72" edge="1">
                    <mxGeometry x="-803.9679487179487" y="60.22471910112361" as="geometry">
                        <mxPoint x="-407.27243589743586" y="474.55056179775283" as="targetPoint"/>
                    </mxGeometry>
                </mxCell>
                <mxCell id="76" value="&lt;font style=&quot;font-size: 20px&quot;&gt;Mencari Solusi Penghindaran&lt;/font&gt;" style="rounded=1;whiteSpace=wrap;html=1;absoluteArcSize=1;arcSize=14;strokeWidth=2;" parent="1" vertex="1">
                    <mxGeometry x="756.8012820512822" y="298.9887640449439" width="253.625" height="70.22471910112361" as="geometry"/>
                </mxCell>
                <mxCell id="77" style="edgeStyle=none;html=1;strokeWidth=4;" parent="1" source="72" target="76" edge="1">
                    <mxGeometry x="-803.9679487179487" y="60.22471910112361" as="geometry">
                        <Array as="points">
                            <mxPoint x="-23.583333333333258" y="439.4382022471911"/>
                            <mxPoint x="-23.583333333333258" y="341.123595505618"/>
                        </Array>
                    </mxGeometry>
                </mxCell>
                <mxCell id="78" value="&lt;font style=&quot;font-size: 20px&quot;&gt;Ya&lt;/font&gt;" style="edgeLabel;html=1;align=center;verticalAlign=middle;resizable=0;points=[];" parent="77" vertex="1" connectable="0">
                    <mxGeometry x="-0.4545" y="-3" relative="1" as="geometry">
                        <mxPoint as="offset"/>
                    </mxGeometry>
                </mxCell>
                <mxCell id="85" value="&lt;font style=&quot;font-size: 20px&quot;&gt;Ya&lt;/font&gt;" style="edgeStyle=none;html=1;exitX=0.5;exitY=1;exitDx=0;exitDy=0;exitPerimeter=0;entryX=0.5;entryY=0;entryDx=0;entryDy=0;entryPerimeter=0;strokeWidth=4;" parent="1" source="83" target="26" edge="1">
                    <mxGeometry x="-869" y="-10" as="geometry">
                        <Array as="points">
                            <mxPoint x="884" y="940"/>
                        </Array>
                        <mxPoint x="262.5576923076924" y="959.1011235955057" as="targetPoint"/>
                    </mxGeometry>
                </mxCell>
                <mxCell id="83" value="&lt;font style=&quot;font-size: 20px&quot;&gt;Apakah ada &lt;br&gt;solusi&lt;/font&gt;" style="strokeWidth=2;html=1;shape=mxgraph.flowchart.decision;whiteSpace=wrap;" parent="1" vertex="1">
                    <mxGeometry x="771" y="411.35" width="230" height="140.45" as="geometry"/>
                </mxCell>
                <mxCell id="31" value="&lt;font style=&quot;font-size: 20px&quot;&gt;Tidak&lt;/font&gt;" style="edgeStyle=none;html=1;exitX=0;exitY=0.5;exitDx=0;exitDy=0;exitPerimeter=0;entryX=0.5;entryY=0;entryDx=0;entryDy=0;entryPerimeter=0;strokeWidth=4;" parent="1" source="83" target="24" edge="1">
                    <mxGeometry x="-869" y="-10" as="geometry">
                        <mxPoint x="522.6858974358972" y="650.1123595505618" as="sourcePoint"/>
                        <mxPoint x="-322.73076923076917" y="565.8426966292135" as="targetPoint"/>
                        <Array as="points">
                            <mxPoint x="118.18653846153848" y="481.5730337078652"/>
                            <mxPoint x="118" y="583"/>
                        </Array>
                        <mxPoint x="5" y="-30" as="offset"/>
                    </mxGeometry>
                </mxCell>
                <mxCell id="97" value="&lt;font style=&quot;font-size: 20px&quot;&gt;Tidak&lt;/font&gt;" style="edgeStyle=none;html=1;entryX=0.5;entryY=1;entryDx=0;entryDy=0;exitX=0;exitY=0.5;exitDx=0;exitDy=0;exitPerimeter=0;strokeWidth=4;" parent="1" source="95" target="14" edge="1">
                    <mxGeometry x="-869" y="-10" as="geometry">
                        <Array as="points">
                            <mxPoint x="174" y="791"/>
                        </Array>
                    </mxGeometry>
                </mxCell>
                <mxCell id="95" value="&lt;font style=&quot;font-size: 20px&quot;&gt;Apakah Ada Jalan &lt;br&gt;dengan Tujuan&lt;/font&gt;" style="strokeWidth=2;html=1;shape=mxgraph.flowchart.decision;whiteSpace=wrap;" parent="1" vertex="1">
                    <mxGeometry x="255.5" y="715" width="297.37" height="154.49" as="geometry"/>
                </mxCell>
                <mxCell id="84" style="edgeStyle=none;html=1;entryX=0.5;entryY=0;entryDx=0;entryDy=0;entryPerimeter=0;strokeWidth=4;" parent="1" source="76" target="83" edge="1">
                    <mxGeometry x="-869" y="-10" as="geometry"/>
                </mxCell>
                <mxCell id="96" style="edgeStyle=none;html=1;entryX=1;entryY=0.5;entryDx=0;entryDy=0;entryPerimeter=0;strokeWidth=4;" parent="1" source="20" target="95" edge="1">
                    <mxGeometry x="-869" y="-10" as="geometry">
                        <Array as="points">
                            <mxPoint x="681" y="792"/>
                        </Array>
                    </mxGeometry>
                </mxCell>
            </root>
        </mxGraphModel>
    </diagram>
</mxfile>